External Loads File
version=1
nRows=93
nColumns=13
Range=5.000000e-03-10 seconds
endheader
time 	forceRightX 	forceRightY 	forceRightZ 	pointRightX 	pointRightY 	pointRightZ 	forceLeftX 	forceLeftY 	forceLeftZ 	pointLeftX 	pointLeftY 	pointLeftZ 		
2.505000 99.293830 1391.248348 -0.000000 0.381696 0.200999 -0.112679 -37.503493 -162.915507 -0.000000 0.197590 0.455930 -0.358916
2.510000 87.361863 1401.055773 -0.000000 0.378571 0.197973 -0.112689 -38.508229 -163.731933 -0.000000 0.195195 0.459188 -0.353066
2.515000 109.058554 1407.236625 -0.000000 0.375425 0.194994 -0.112697 -43.119699 -163.019813 -0.000000 0.202225 0.462128 -0.356384
2.520000 118.941004 1412.163239 -0.000000 0.372148 0.192101 -0.112666 -45.866538 -161.862452 -0.000000 0.205757 0.465450 -0.356654
2.525000 134.022876 1413.848519 -0.000000 0.368820 0.189326 -0.112670 -48.588702 -159.619977 -0.000000 0.210787 0.468597 -0.360203
2.530000 143.271888 1412.521949 -0.000000 0.365449 0.186625 -0.112627 -49.955146 -156.580004 -0.000000 0.214493 0.471561 -0.360402
2.535000 153.072576 1406.858082 -0.000000 0.362041 0.183975 -0.112676 -50.704189 -152.472242 -0.000000 0.218423 0.474550 -0.359829
2.540000 161.116885 1396.419710 -0.000000 0.358529 0.181480 -0.112676 -50.684968 -147.339009 -0.000000 0.221970 0.477604 -0.359537
2.545000 167.695286 1380.639858 -0.000000 0.355034 0.179158 -0.112678 -50.069238 -141.163467 -0.000000 0.225526 0.480334 -0.359411
2.550000 173.879970 1359.034097 -0.000000 0.351427 0.176997 -0.112653 -49.070204 -133.946820 -0.000000 0.229159 0.482907 -0.359301
2.555000 179.866669 1331.433908 -0.000000 0.347654 0.174906 -0.112413 -47.759980 -125.777257 -0.000000 0.232786 0.485447 -0.359175
2.560000 184.813225 1297.984253 -0.000000 0.343901 0.173036 -0.112353 -46.097657 -116.828149 -0.000000 0.236505 0.487797 -0.358973
2.565000 188.381222 1258.876894 -0.000000 0.340219 0.171308 -0.112310 -44.115165 -107.273136 -0.000000 0.240220 0.490041 -0.359138
2.570000 189.894729 1214.440036 -0.000000 0.336441 0.169692 -0.112194 -41.875671 -97.287412 -0.000000 0.243601 0.492110 -0.359361
2.575000 191.615682 1164.607324 -0.000000 0.332711 0.168189 -0.112168 -39.739726 -86.923165 -0.000000 0.247441 0.494093 -0.359452
2.580000 192.298371 1109.891577 -0.000000 0.328980 0.166896 -0.112064 -37.793171 -76.324698 -0.000000 0.251416 0.495886 -0.359418
2.585000 191.347476 1050.754815 -0.000000 0.325341 0.165579 -0.111996 -36.153574 -65.571915 -0.000000 0.255381 0.497492 -0.359765
2.590000 188.865832 987.566074 -0.000000 0.321714 0.164425 -0.111942 -34.935963 -54.675374 -0.000000 0.259317 0.498969 -0.359923
2.595000 184.551945 920.789242 -0.000000 0.318120 0.163451 -0.111848 -34.169699 -43.624566 -0.000000 0.263125 0.500245 -0.361026
2.600000 179.233515 850.703643 -0.000000 0.314610 0.162502 -0.111743 -33.869828 -32.352509 -0.000000 0.267128 0.501509 -0.361158
2.605000 172.940998 777.830211 -0.000000 0.311054 0.161822 -0.111625 -33.944332 -20.812945 -0.000000 0.271284 0.502658 -0.360708
2.610000 164.675655 703.101635 -0.000000 0.307610 0.161209 -0.111491 -34.263172 -8.983020 -0.000000 0.275229 0.503650 -0.361265
2.615000 155.313296 627.273039 -0.000000 0.304204 0.160748 -0.111324 -34.767236 3.292976 -0.000000 0.279195 0.504505 -0.360917
2.620000 145.218467 551.431179 -0.000000 0.300674 0.160438 -0.111224 -35.399556 16.210798 -0.000000 0.283037 0.505303 -0.361193
2.625000 134.583130 476.869167 -0.000000 0.297196 0.160215 -0.110986 -36.143851 29.986651 -0.000000 0.286809 0.505910 -0.360879
2.630000 127.267383 403.821471 -0.000000 0.293569 0.160169 -0.110891 -36.638373 45.157899 -0.000000 0.293176 0.506561 -0.359247
2.635000 117.407061 335.394832 -0.000000 0.289831 0.160221 -0.110632 -37.368765 61.419354 -0.000000 0.297183 0.506884 -0.359178
2.640000 107.305494 272.331415 -0.000000 0.285914 0.160474 -0.110453 -38.500672 78.992077 -0.000000 0.299342 0.507039 -0.360939
2.645000 100.493243 214.373378 -0.000000 0.281832 0.160837 -0.110281 -39.241447 98.424569 -0.000000 0.303336 0.505970 -0.360950
2.650000 95.341050 162.820155 -0.000000 0.277532 0.161392 -0.110123 -39.892874 119.634660 -0.000000 0.307176 0.505774 -0.361517
2.655000 92.249943 117.770016 -0.000000 0.272641 0.162136 -0.110256 -40.105794 142.818676 -0.000000 0.311132 0.505283 -0.361576
2.660000 90.792626 79.395814 -0.000000 0.267930 0.163025 -0.110200 -40.093245 167.942683 -0.000000 0.315102 0.504754 -0.361498
2.665000 90.940075 47.237816 -0.000000 0.263078 0.164121 -0.110101 -39.647177 195.016603 -0.000000 0.319047 0.503957 -0.361545
2.670000 92.356870 20.749695 -0.000000 0.258145 0.165467 -0.110104 -38.763955 223.881740 -0.000000 0.322923 0.503017 -0.361427
2.675000 94.611502 -0.713861 -0.000000 0.253056 0.166924 -0.110227 -37.479957 254.296043 -0.000000 0.326718 0.502389 -0.361539
2.680000 97.171557 -17.840217 -0.000000 0.247872 0.168524 -0.110366 -35.704108 285.999448 -0.000000 0.330468 0.501131 -0.361486
2.685000 99.436385 -31.210192 -0.000000 0.242858 0.170421 -0.110423 -33.381139 318.707953 -0.000000 0.334583 0.499684 -0.360978
2.690000 100.939474 -41.087664 -0.000000 0.238002 0.172325 -0.110457 -31.177545 352.066270 -0.000000 0.338464 0.498093 -0.360891
2.695000 101.248084 -48.040058 -0.000000 0.233134 0.174312 -0.110632 -28.607593 385.851161 -0.000000 0.342566 0.496280 -0.360954
2.700000 100.281326 -52.220181 -0.000000 0.228365 0.176458 -0.110613 -26.710048 419.749985 -0.000000 0.346122 0.494269 -0.361298
2.705000 97.920953 -54.270649 -0.000000 0.223798 0.178743 -0.110744 -24.842897 453.621906 -0.000000 0.350029 0.492135 -0.361186
2.710000 94.497509 -54.328968 -0.000000 0.219490 0.181127 -0.110952 -24.924410 487.180427 -0.000000 0.352949 0.489906 -0.361563
2.715000 89.983535 -53.447718 -0.000000 0.215143 0.183467 -0.111178 -24.879401 520.354576 -0.000000 0.356383 0.487481 -0.361597
2.720000 84.776886 -52.095510 -0.000000 0.211063 0.186099 -0.111389 -25.526195 552.959985 -0.000000 0.359902 0.484932 -0.362131
2.725000 79.233571 -50.882207 -0.000000 0.206827 0.188937 -0.111635 -26.966416 584.929945 -0.000000 0.363186 0.482441 -0.362166
2.730000 73.660160 -50.369915 -0.000000 0.202828 0.191933 -0.111791 -29.064709 616.266250 -0.000000 0.366505 0.479581 -0.362004
2.735000 68.251934 -50.966120 -0.000000 0.198774 0.195135 -0.111933 -31.646193 646.988902 -0.000000 0.369784 0.476643 -0.361591
2.740000 63.080013 -52.870845 -0.000000 0.194794 0.198463 -0.111987 -34.556257 677.110708 -0.000000 0.373086 0.473377 -0.361338
2.745000 58.167404 -56.029710 -0.000000 0.190944 0.202025 -0.111986 -38.098334 706.619903 -0.000000 0.376070 0.469672 -0.361219
2.750000 53.465668 -60.241802 -0.000000 0.187197 0.205542 -0.112033 -42.087341 735.523901 -0.000000 0.379101 0.465756 -0.360898
2.755000 48.932992 -65.151462 -0.000000 0.183499 0.209204 -0.112110 -46.515339 763.775462 -0.000000 0.381996 0.461717 -0.361099
2.760000 44.545969 -70.331722 -0.000000 0.179951 0.212897 -0.112121 -51.592771 791.226778 -0.000000 0.384676 0.457427 -0.361627
2.765000 40.160253 -75.432646 -0.000000 0.176636 0.216663 -0.112028 -56.125598 817.752814 -0.000000 0.387920 0.453064 -0.361104
2.770000 35.874287 -80.019403 -0.000000 0.173415 0.220540 -0.111960 -61.497550 843.048412 -0.000000 0.390672 0.448580 -0.361272
2.775000 31.595674 -83.883233 -0.000000 0.170365 0.224453 -0.111873 -66.887480 866.991138 -0.000000 0.393364 0.443917 -0.361391
2.780000 27.325756 -86.912677 -0.000000 0.167544 0.228356 -0.111772 -72.366165 889.450721 -0.000000 0.396029 0.439134 -0.361366
2.785000 23.061541 -89.170226 -0.000000 0.164820 0.232436 -0.111678 -77.631076 910.383511 -0.000000 0.398534 0.434346 -0.361388
2.790000 18.863644 -90.853908 -0.000000 0.162234 0.236615 -0.111692 -82.707043 929.789136 -0.000000 0.400923 0.429554 -0.361306
2.795000 14.537040 -92.291600 -0.000000 0.159754 0.240883 -0.111776 -84.878394 948.001089 -0.000000 0.403595 0.424016 -0.360874
2.800000 10.560234 -93.687848 -0.000000 0.157356 0.245268 -0.111874 -88.313489 964.823696 -0.000000 0.405718 0.418908 -0.360751
2.805000 6.932968 -95.291362 -0.000000 0.155372 0.249734 -0.111707 -92.161016 980.559190 -0.000000 0.407351 0.413654 -0.360925
2.810000 3.592515 -97.260854 -0.000000 0.153274 0.254447 -0.111750 -94.731671 995.617597 -0.000000 0.408700 0.408275 -0.361573
2.815000 0.630086 -99.668568 -0.000000 0.151374 0.259249 -0.111753 -95.984438 1010.264540 -0.000000 0.410390 0.402742 -0.361621
2.820000 -1.846020 -102.521585 -0.000000 0.149553 0.264324 -0.111762 -96.422861 1024.708837 -0.000000 0.412120 0.397224 -0.361198
2.825000 -3.677624 -105.747993 -0.000000 0.147799 0.269450 -0.111778 -97.386661 1039.051018 -0.000000 0.413590 0.391720 -0.361312
2.830000 -5.244665 -109.163389 -0.000000 0.146197 0.274760 -0.111647 -95.059153 1053.778839 -0.000000 0.415431 0.385413 -0.360641
2.835000 -6.157541 -112.545942 -0.000000 0.144640 0.280395 -0.111737 -93.170041 1068.531287 -0.000000 0.416776 0.379341 -0.360498
2.840000 -6.482685 -115.654446 -0.000000 0.143227 0.286044 -0.111922 -90.968146 1083.255617 -0.000000 0.417957 0.373176 -0.360346
2.845000 -6.185084 -118.284948 -0.000000 0.141850 0.292012 -0.112106 -88.782279 1097.783255 -0.000000 0.418437 0.367264 -0.360718
2.850000 -5.649935 -120.253218 -0.000000 0.140720 0.298021 -0.112185 -83.203811 1112.283202 -0.000000 0.419046 0.360656 -0.360776
2.855000 -4.521526 -121.468449 -0.000000 0.139690 0.304086 -0.112292 -77.969755 1126.403035 -0.000000 0.419099 0.354267 -0.361228
2.860000 -3.024302 -121.880715 -0.000000 0.138869 0.310186 -0.112440 -71.808950 1140.205268 -0.000000 0.419394 0.347865 -0.361221
2.865000 -1.310147 -121.511124 -0.000000 0.138291 0.316437 -0.112586 -64.353830 1153.656869 -0.000000 0.419476 0.341367 -0.361223
2.870000 0.585797 -120.416996 -0.000000 0.137681 0.322685 -0.112582 -56.321993 1166.647160 -0.000000 0.419728 0.334832 -0.360798
2.875000 2.876987 -118.646201 -0.000000 0.137421 0.328880 -0.112714 -50.708813 1178.983423 -0.000000 0.419697 0.328837 -0.360616
2.880000 4.919583 -116.259691 -0.000000 0.137568 0.335276 -0.112942 -41.704448 1190.860502 -0.000000 0.419233 0.322265 -0.360542
2.885000 7.004845 -113.341114 -0.000000 0.137730 0.341686 -0.113063 -32.357082 1202.052313 -0.000000 0.418559 0.315676 -0.360518
2.890000 9.131991 -110.050549 -0.000000 0.138135 0.348127 -0.113146 -22.838467 1212.479237 -0.000000 0.417463 0.309148 -0.360787
2.895000 11.313370 -106.635340 -0.000000 0.138762 0.354488 -0.113277 -13.580157 1222.101227 -0.000000 0.416266 0.302633 -0.360856
2.900000 13.555565 -103.400253 -0.000000 0.139514 0.360843 -0.113265 -5.223495 1230.983407 -0.000000 0.415270 0.296224 -0.360914
2.905000 15.695765 -100.683117 -0.000000 0.140670 0.367171 -0.113319 3.188061 1239.333891 -0.000000 0.413801 0.289820 -0.361116
2.910000 17.699489 -98.779202 -0.000000 0.142082 0.373386 -0.113375 10.427379 1247.498334 -0.000000 0.412392 0.283413 -0.360411
2.915000 19.447409 -97.913881 -0.000000 0.143728 0.379279 -0.113433 15.433007 1255.953589 -0.000000 0.410711 0.277072 -0.360452
2.920000 20.499357 -98.247910 -0.000000 0.145639 0.385430 -0.113450 20.834175 1265.151376 -0.000000 0.408648 0.270760 -0.360723
2.925000 20.791615 -99.735331 -0.000000 0.147937 0.391657 -0.113515 24.623676 1275.550077 -0.000000 0.406927 0.264552 -0.360443
2.930000 20.096472 -102.260366 -0.000000 0.150320 0.397800 -0.113497 27.379873 1287.484004 -0.000000 0.404772 0.258406 -0.360396
2.935000 18.190249 -105.639984 -0.000000 0.153065 0.403824 -0.113357 30.168244 1301.132404 -0.000000 0.402233 0.252267 -0.360588
2.940000 15.189156 -109.604097 -0.000000 0.155896 0.409792 -0.113492 30.795484 1316.603999 -0.000000 0.399954 0.246367 -0.360256
2.945000 10.848803 -113.943834 -0.000000 0.159050 0.415690 -0.113394 32.847419 1333.761241 -0.000000 0.397245 0.240429 -0.360142
2.950000 5.406433 -118.398745 -0.000000 0.162451 0.421417 -0.113429 35.270718 1352.468078 -0.000000 0.394295 0.234624 -0.360116
2.955000 -1.122369 -122.777649 -0.000000 0.166034 0.427628 -0.113391 40.143878 1372.380356 -0.000000 0.391236 0.228979 -0.359973
2.960000 -8.285897 -126.953305 -0.000000 0.170101 0.432859 -0.113293 44.512560 1393.163419 -0.000000 0.387882 0.223447 -0.359835
2.965000 -16.104065 -130.855898 -0.000000 0.173925 0.438194 -0.113195 50.480270 1414.232256 -0.000000 0.384140 0.218049 -0.360054
